<?xml version="1.0" standalone="no"?>
<!DOCTYPE svg PUBLIC "-//W3C//DTD SVG 20010904//EN"
 "http://www.w3.org/TR/2001/REC-SVG-20010904/DTD/svg10.dtd">
<svg version="1.0" xmlns="http://www.w3.org/2000/svg"
 width="512.000000pt" height="512.000000pt" viewBox="0 0 512.000000 512.000000"
 preserveAspectRatio="xMidYMid meet">

<g transform="translate(0.000000,512.000000) scale(0.100000,-0.100000)"
fill="#000000" stroke="none">
<path d="M2607 5063 c-14 -13 -7 -43 12 -53 11 -5 38 -10 61 -10 53 0 152 -34
212 -72 63 -40 149 -134 178 -194 48 -102 50 -119 50 -455 0 -174 3 -324 6
-333 4 -10 18 -16 35 -16 22 0 30 6 35 25 3 14 4 164 1 333 -5 337 -11 374
-70 487 -42 78 -155 192 -232 232 -33 17 -88 38 -121 47 -63 16 -155 21 -167
9z"/>
</g>
</svg>
